<?xml version="1.0" standalone="no"?>
<!DOCTYPE svg PUBLIC "-//W3C//DTD SVG 20010904//EN"
 "http://www.w3.org/TR/2001/REC-SVG-20010904/DTD/svg10.dtd">
<svg version="1.0" xmlns="http://www.w3.org/2000/svg"
 width="577.000000pt" height="433.000000pt" viewBox="0 0 577.000000 433.000000"
 preserveAspectRatio="xMidYMid meet">

<g transform="translate(0.000000,433.000000) scale(0.100000,-0.100000)"
fill="#000000" stroke="none">
<path d="M3510 3575 c0 -4 10 -16 23 -26 l22 -20 -24 11 c-18 9 -25 9 -31 -1
-10 -15 -128 -6 -162 12 -31 17 -247 3 -322 -20 -17 -5 -66 -15 -108 -22 -43
-6 -78 -16 -78 -20 0 -5 -9 -9 -20 -9 -11 0 -20 -5 -20 -11 0 -5 -4 -7 -10 -4
-16 10 -59 -43 -53 -65 3 -12 -1 -22 -11 -26 -9 -3 -16 -10 -16 -15 0 -5 -20
-28 -44 -52 -24 -23 -51 -54 -60 -69 -16 -25 -16 -28 -1 -52 19 -28 35 -34 35
-12 0 16 75 86 93 86 16 0 87 -66 88 -82 0 -15 15 -94 22 -123 23 -91 30 -118
43 -175 8 -36 14 -85 13 -110 -2 -25 3 -64 11 -87 l13 -43 131 0 c161 0 246
-10 501 -56 110 -20 232 -37 270 -38 70 -1 71 -1 300 110 127 61 237 114 245
117 10 4 11 6 2 6 -18 1 -57 47 -93 107 -16 29 -39 54 -49 57 -12 3 -27 22
-36 44 -18 44 -111 230 -129 255 -6 10 -15 15 -20 10 -5 -4 -5 -1 -1 5 9 16
-17 56 -29 45 -5 -4 -5 -1 -1 5 8 14 -17 56 -27 48 -4 -3 -5 -2 -2 1 6 9 -15
47 -22 40 -3 -3 -11 1 -17 10 -6 8 -26 17 -44 20 -18 3 -44 16 -57 30 -14 14
-30 22 -35 19 -6 -3 -17 0 -25 8 -8 9 -50 23 -92 32 -43 10 -99 28 -125 42
-27 13 -48 21 -48 18z m458 -340 c-3 -3 -9 2 -12 12 -6 14 -5 15 5 6 7 -7 10
-15 7 -18z m22 -50 c0 -5 -5 -3 -10 5 -5 8 -10 20 -10 25 0 6 5 3 10 -5 5 -8
10 -19 10 -25z m128 -90 c-3 -3 -9 2 -12 12 -6 14 -5 15 5 6 7 -7 10 -15 7
-18z m-63 -122 c-4 -64 -16 -89 -26 -53 -9 34 -11 124 -2 146 12 32 32 -34 28
-93z m119 -8 c25 -63 46 -121 46 -128 -1 -21 -22 23 -55 117 -18 50 -36 99
-40 109 -4 9 -5 17 -2 17 3 0 26 -52 51 -115z m-444 -1 c0 -8 -4 -12 -10 -9
-5 3 -10 10 -10 16 0 5 5 9 10 9 6 0 10 -7 10 -16z m-91 -36 c12 -35 9 -43
-14 -35 -16 7 -22 67 -6 67 5 0 14 -14 20 -32z m465 -3 c3 -8 1 -15 -4 -15 -6
0 -10 7 -10 15 0 8 2 15 4 15 2 0 6 -7 10 -15z m-549 -46 c-22 -4 -58 -12 -81
-17 -29 -6 -46 -5 -57 3 -27 20 -8 25 87 24 75 -1 84 -3 51 -10z m-205 -14 c7
-9 11 -17 9 -19 -11 -10 -139 -14 -145 -5 -10 16 4 23 59 30 29 3 55 7 58 8 4
0 12 -6 19 -14z m41 -2 c13 -15 12 -15 -8 -4 -24 12 -29 21 -14 21 5 0 15 -7
22 -17z m427 -49 c25 -17 29 -56 9 -73 -25 -20 -77 55 -54 78 14 14 18 14 45
-5z m-159 -28 c15 -26 7 -66 -13 -66 -7 0 -21 9 -31 20 -15 16 -16 22 -5 35
11 13 10 14 -4 9 -9 -3 -16 -2 -16 4 0 6 6 13 13 15 27 11 44 6 56 -17z m584
-7 c7 -25 3 -24 -17 6 -13 19 -13 23 -2 19 8 -3 16 -14 19 -25z m-353 -7 c0
-15 -2 -15 -10 -2 -7 12 -10 8 -11 -15 0 -16 -3 -24 -6 -17 -7 19 6 64 17 57
6 -3 10 -14 10 -23z m-183 -24 c-3 -7 -5 -2 -5 12 0 14 2 19 5 13 2 -7 2 -19
0 -25z m3 -22 c0 -3 -4 -8 -10 -11 -5 -3 -10 -1 -10 4 0 6 5 11 10 11 6 0 10
-2 10 -4z"/>
<path d="M2488 3183 c7 -3 16 -2 19 1 4 3 -2 6 -13 5 -11 0 -14 -3 -6 -6z"/>
<path d="M2416 2958 c7 -73 16 -180 19 -238 4 -58 11 -150 16 -205 20 -213 30
-430 19 -433 -17 -6 -12 -30 37 -174 40 -116 51 -138 68 -138 11 0 92 6 180
13 215 18 222 18 228 -5 4 -14 1 -18 -9 -14 -8 3 -14 1 -14 -5 0 -7 -22 -10
-60 -7 -33 1 -60 0 -60 -3 0 -6 -40 -9 -490 -34 -294 -17 -703 -41 -852 -51
-67 -5 -98 -4 -98 4 0 5 18 13 40 17 28 5 40 12 40 23 1 15 2 15 14 0 7 -10
20 -18 28 -18 14 0 13 7 -2 53 -10 28 -23 68 -28 87 l-9 35 -11 -26 c-5 -14
-16 -26 -24 -27 -26 -2 -48 -8 -55 -16 -4 -5 11 -6 35 -2 29 4 42 3 42 -6 0
-6 -3 -8 -7 -5 -3 4 -12 2 -19 -4 -8 -6 -21 -8 -30 -5 -12 4 -15 2 -10 -9 3
-8 1 -15 -4 -15 -14 0 -23 44 -17 89 3 26 0 45 -8 51 -9 7 -16 55 -20 135 -4
68 -11 139 -15 157 -9 33 -5 -109 5 -239 l5 -62 -37 -7 -38 -7 29 -8 c16 -5
33 -6 38 -3 4 3 8 0 8 -5 0 -6 -8 -11 -17 -11 -24 -1 -55 -25 -45 -35 4 -5 2
-5 -5 -1 -6 3 -14 -1 -16 -11 -3 -10 -3 2 0 26 5 35 2 47 -12 57 -13 10 -16
23 -13 53 2 23 0 41 -4 41 -5 0 -8 -23 -8 -51 0 -34 -4 -48 -11 -43 -7 4 -9
22 -6 45 3 22 1 37 -4 33 -5 -3 -9 -24 -9 -47 0 -31 -3 -38 -10 -27 -8 12 -11
13 -19 1 -7 -11 -9 -11 -14 0 -4 10 -6 10 -6 2 -2 -21 -21 -15 -21 6 0 13 9
21 30 26 17 4 30 11 30 16 0 11 -35 -2 -81 -30 -19 -12 -49 -21 -66 -21 -35 0
-37 -5 -33 -77 1 -28 -2 -33 -20 -33 -19 0 -22 4 -18 34 2 19 0 32 -4 30 -4
-3 -8 -27 -8 -53 0 -33 6 -53 20 -68 11 -12 15 -23 9 -25 -21 -7 3 -38 31 -38
27 0 27 1 19 43 -14 71 -13 75 24 73 29 -1 32 2 35 29 2 17 8 34 13 40 6 6 7
-4 4 -28 -7 -43 -4 -44 69 -22 64 20 66 19 66 -9 0 -22 3 -23 35 -16 20 5 33
4 29 -1 -3 -5 -13 -9 -22 -9 -32 0 -43 -15 -36 -49 l7 -33 63 7 c43 4 64 3 64
-4 0 -6 -21 -11 -47 -12 -27 0 -57 -5 -68 -10 -14 -6 1 -8 48 -5 37 1 67 -1
67 -6 0 -4 -34 -8 -75 -8 -58 0 -73 -3 -69 -13 4 -10 -7 -13 -48 -10 -29 1
-59 5 -67 8 -7 3 -19 1 -25 -4 -13 -11 -56 4 -56 19 0 6 -10 2 -22 -9 -18 -17
-36 -21 -117 -21 -53 -1 -124 -3 -158 -6 -56 -5 -63 -8 -64 -27 0 -22 0 -22
-9 1 -8 18 -15 21 -37 16 -48 -10 -53 -13 -53 -28 0 -13 25 -16 152 -18 l153
-3 13 -27 c16 -35 27 -35 48 -3 19 29 51 32 93 11 15 -8 65 -22 112 -30 46 -9
136 -32 199 -52 63 -19 126 -39 139 -43 20 -6 27 -18 37 -60 32 -143 201 -214
804 -336 173 -35 392 -80 485 -99 313 -65 529 -80 776 -56 236 24 386 71 589
189 8 5 37 18 64 30 26 12 46 24 43 27 -2 3 -55 -7 -117 -21 -62 -14 -118 -24
-125 -21 -7 2 -18 37 -24 78 -6 40 -14 85 -17 100 -5 20 -2 27 13 32 58 18
369 77 384 73 22 -6 30 12 22 57 l-5 35 90 42 90 41 5 91 c3 51 8 104 12 120
6 23 4 27 -14 27 -15 0 -21 7 -22 23 -1 16 -3 17 -6 5 -3 -13 -9 -15 -21 -8
-9 5 -25 11 -34 14 -23 7 -25 78 -3 96 8 7 13 16 10 20 -3 4 1 10 8 13 10 4
13 34 8 78 0 5 -6 7 -12 3 -6 -3 -4 5 5 18 9 14 13 28 9 31 -3 4 -1 7 6 7 7 0
9 5 6 10 -3 6 -20 10 -37 10 l-31 0 7 58 c3 31 14 94 23 139 14 69 15 94 6
149 -7 37 -16 70 -20 73 -5 3 -23 56 -39 116 l-31 110 -34 -3 c-19 -2 -90 -27
-159 -57 -168 -71 -294 -119 -357 -135 -54 -14 -121 -9 -538 41 -128 15 -198
18 -286 13 l-116 -6 13 -50 c20 -77 63 -219 80 -261 18 -47 18 -68 -1 -43 -8
10 -38 92 -66 182 -41 129 -56 164 -70 164 -11 0 -38 33 -73 90 -31 50 -77
119 -101 152 -25 34 -45 71 -45 83 0 11 -12 38 -25 60 -14 22 -25 33 -25 25 0
-8 7 -91 15 -185 7 -93 11 -173 9 -177 -3 -4 -26 -8 -51 -8 -40 0 -45 2 -40
20 3 10 -1 79 -8 152 -20 195 -21 225 -10 225 35 0 55 4 55 13 0 5 -7 7 -15 4
-8 -4 -32 9 -55 28 -34 30 -96 58 -127 58 -5 0 -4 -53 3 -132z m11 100 c-3 -8
-6 -5 -6 6 -1 11 2 17 5 13 3 -3 4 -12 1 -19z m16 -83 c4 -39 3 -54 -3 -45 -9
14 -15 119 -6 109 2 -2 6 -31 9 -64z m83 -95 c4 -115 17 -236 28 -261 5 -10 2
-16 -9 -16 -8 0 -15 6 -15 14 0 7 -4 13 -9 13 -5 0 -8 14 -6 31 4 26 2 29 -15
24 -17 -5 -20 -2 -20 24 0 17 -4 31 -10 31 -5 0 -10 -19 -10 -42 0 -67 -7 -40
-13 52 -4 52 -3 77 3 65 7 -17 9 -15 9 12 1 17 -3 35 -9 38 -18 11 -10 25 14
25 13 0 27 6 29 13 3 7 6 5 6 -5 1 -10 -4 -18 -9 -18 -6 0 -8 -11 -4 -26 4
-16 3 -25 -2 -21 -6 3 -11 -3 -11 -14 -1 -11 5 -19 14 -19 9 0 13 6 10 14 -3
7 -2 17 3 22 12 13 16 126 6 143 -6 9 -5 12 4 9 8 -2 13 -36 16 -108z m191
-137 c-3 -10 -5 -4 -5 12 0 17 2 24 5 18 2 -7 2 -21 0 -30z m-233 -143 c8 0
16 -10 20 -22 9 -34 8 -36 -17 -34 -21 1 -23 6 -24 56 0 30 2 43 4 28 2 -16
10 -28 17 -28z m1973 -87 c6 -49 8 -93 6 -100 -5 -14 -20 -20 -88 -38 -27 -8
-58 -17 -67 -20 -10 -4 -18 -3 -18 3 0 6 10 12 21 14 34 5 46 32 31 70 -10 27
-9 36 4 56 22 34 85 102 94 102 4 0 12 -39 17 -87z m-1797 0 c1 -16 3 -53 6
-83 l5 -55 -49 -15 -50 -16 -6 51 c-11 97 -8 125 17 135 12 5 34 9 50 9 23 1
27 -3 27 -26z m1338 -85 c9 -9 12 -9 12 0 0 16 27 15 33 0 3 -9 -8 -14 -34
-15 -29 -2 -39 1 -39 12 0 18 12 19 28 3z m-1260 -12 c-7 -8 -15 -12 -17 -11
-5 6 10 25 20 25 5 0 4 -6 -3 -14z m396 8 c12 -5 13 -10 4 -30 -6 -13 -14 -24
-18 -24 -6 0 -30 44 -30 55 0 7 26 6 44 -1z m766 -9 c0 -8 -4 -15 -9 -15 -5 0
-11 7 -15 15 -3 9 0 15 9 15 8 0 15 -7 15 -15z m50 6 c0 -16 -28 -20 -34 -5
-4 9 1 14 14 14 11 0 20 -4 20 -9z m-167 -32 c-23 -8 -27 -4 -19 17 5 14 9 14
22 3 14 -12 14 -14 -3 -20z m83 20 c3 -5 -1 -9 -8 -10 -7 0 -21 -2 -30 -4 -10
-2 -18 3 -18 10 0 14 47 17 56 4z m-631 -42 c20 -18 20 -18 23 2 4 25 4 24 36
9 22 -9 24 -14 13 -26 -10 -13 -9 -14 3 -7 13 8 13 6 1 -8 -7 -9 -11 -30 -9
-47 4 -29 3 -30 -33 -30 -49 0 -103 27 -124 63 -16 27 -16 29 11 52 29 25 46
23 79 -8z m791 3 c-19 -17 -42 -51 -52 -75 -17 -47 -34 -54 -79 -35 -18 7 -15
12 33 59 47 46 49 50 20 35 -18 -9 -47 -30 -65 -46 -26 -25 -36 -29 -62 -23
-17 4 -31 10 -31 14 0 4 21 20 48 35 51 29 21 25 -40 -5 -30 -15 -42 -17 -65
-8 -26 10 -27 11 -9 24 28 21 105 34 200 34 47 0 93 4 103 10 34 20 34 11 -1
-19z m-1360 -46 c-4 -9 -1 -22 5 -30 6 -7 9 -23 7 -35 -3 -21 -9 -25 -53 -31
-11 -2 -23 -7 -27 -13 -4 -5 -10 -6 -14 -2 -4 3 -1 13 5 21 7 9 8 17 2 20 -5
3 -7 15 -4 26 3 12 0 20 -8 20 -13 0 -3 14 12 16 5 1 10 2 12 3 1 2 13 5 26 7
14 2 27 7 30 9 9 10 13 4 7 -11z m778 -36 c9 -12 16 -26 16 -30 0 -12 -68 -10
-75 2 -3 6 -2 10 4 10 5 0 13 9 16 20 8 26 20 25 39 -2z m-519 -97 c-6 -5 -30
-12 -55 -15 l-45 -5 45 13 c56 17 67 19 55 7z m-112 -28 c-7 -2 -19 -2 -25 0
-7 3 -2 5 12 5 14 0 19 -2 13 -5z m-1693 -294 c0 -18 -2 -19 -15 -9 -15 12
-12 30 6 30 5 0 9 -10 9 -21z m-83 -46 c-3 -10 -5 -2 -5 17 0 19 2 27 5 18 2
-10 2 -26 0 -35z m1890 22 c9 -24 -1 -27 -15 -5 -8 13 -8 20 -2 20 6 0 13 -7
17 -15z m-59 -2 c-10 -2 -28 -2 -40 0 -13 2 -5 4 17 4 22 1 32 -1 23 -4z
m-1525 -39 c-4 -10 -9 -12 -15 -6 -12 12 -1 35 12 27 5 -3 6 -13 3 -21z m1832
-10 c0 -26 -29 -24 -33 3 -2 16 1 21 15 19 10 -2 18 -11 18 -22z m1172 0 c-3
-3 -12 -4 -19 -1 -8 3 -5 6 6 6 11 1 17 -2 13 -5z m-77 -14 c-19 -5 -64 -11
-100 -14 l-65 -5 75 13 c87 15 146 19 90 6z m-2920 -22 c0 -18 -2 -20 -9 -8
-6 8 -7 18 -5 22 9 14 14 9 14 -14z m2690 -3 c0 -10 -10 -15 -32 -15 l-33 0
25 14 c33 19 40 19 40 1z m-2597 -16 c3 -13 1 -19 -6 -16 -15 5 -22 37 -9 37
5 0 12 -9 15 -21z m2650 14 c-7 -2 -21 -2 -30 0 -10 3 -4 5 12 5 17 0 24 -2
18 -5z m-150 -20 c-7 -2 -19 -2 -25 0 -7 3 -2 5 12 5 14 0 19 -2 13 -5z m-60
-10 c-7 -2 -19 -2 -25 0 -7 3 -2 5 12 5 14 0 19 -2 13 -5z m-80 -10 c-7 -2
-19 -2 -25 0 -7 3 -2 5 12 5 14 0 19 -2 13 -5z m-823 -22 c0 -11 -4 -22 -9
-26 -6 -3 -185 -8 -398 -11 -213 -3 -561 -10 -773 -14 -212 -5 -387 -6 -389
-4 -13 13 10 14 849 40 107 4 299 12 425 19 127 7 245 13 263 14 25 1 32 -3
32 -18z m773 12 c-7 -2 -21 -2 -30 0 -10 3 -4 5 12 5 17 0 24 -2 18 -5z m280
-8 c-3 -9 -8 -14 -10 -11 -3 3 -2 9 2 15 9 16 15 13 8 -4z m574 -1 c-3 -3 -12
-4 -19 -1 -8 3 -5 6 6 6 11 1 17 -2 13 -5z m-60 -10 c-3 -3 -12 -4 -19 -1 -8
3 -5 6 6 6 11 1 17 -2 13 -5z m-54 -11 c-7 -2 -19 -2 -25 0 -7 3 -2 5 12 5 14
0 19 -2 13 -5z m-3450 -78 c4 -8 2 -17 -3 -20 -6 -4 -10 3 -10 14 0 25 6 27
13 6z m1257 -247 c0 -10 -9 -9 -35 2 -17 8 -16 8 8 7 15 -1 27 -5 27 -9z
m1715 -190 c9 -51 18 -100 21 -109 3 -12 -12 -17 -83 -27 -49 -7 -173 -23
-278 -38 -104 -14 -199 -26 -210 -27 -16 -2 -22 8 -32 47 -7 27 -15 69 -19 92
-6 41 -4 44 26 63 18 10 69 24 114 31 262 37 413 58 427 59 14 1 20 -18 34
-91z"/>
<path d="M2511 2724 c0 -11 3 -14 6 -6 3 7 2 16 -1 19 -3 4 -6 -2 -5 -13z"/>
<path d="M3210 2290 c-9 -6 -10 -10 -3 -10 6 0 15 5 18 10 8 12 4 12 -15 0z"/>
<path d="M2636 2303 c-6 -15 -8 -15 -16 -3 -8 13 -10 12 -10 -3 0 -14 5 -17
20 -12 18 6 20 3 15 -22 -3 -15 -2 -22 1 -15 3 6 10 10 15 6 13 -8 11 10 -5
40 -12 23 -14 24 -20 9z"/>
<path d="M2611 2254 c0 -11 3 -14 6 -6 3 7 2 16 -1 19 -3 4 -6 -2 -5 -13z"/>
<path d="M3800 1190 c0 -5 5 -10 11 -10 5 0 7 5 4 10 -3 6 -8 10 -11 10 -2 0
-4 -4 -4 -10z"/>
<path d="M3917 1160 c3 -11 9 -20 13 -20 5 0 6 9 3 20 -3 11 -9 20 -13 20 -5
0 -6 -9 -3 -20z"/>
<path d="M3580 1160 c0 -5 5 -10 11 -10 5 0 7 5 4 10 -3 6 -8 10 -11 10 -2 0
-4 -4 -4 -10z"/>
<path d="M3812 1140 c0 -14 2 -19 5 -12 2 6 2 18 0 25 -3 6 -5 1 -5 -13z"/>
<path d="M3697 1130 c3 -11 9 -20 13 -20 5 0 6 9 3 20 -3 11 -9 20 -13 20 -5
0 -6 -9 -3 -20z"/>
<path d="M3587 1110 c3 -11 9 -20 14 -20 11 0 11 3 3 24 -9 23 -23 20 -17 -4z"/>
<path d="M3500 1101 c0 -12 5 -21 10 -21 6 0 10 6 10 14 0 8 -4 18 -10 21 -5
3 -10 -3 -10 -14z"/>
<path d="M2146 2801 c-3 -5 -15 -7 -26 -4 -18 5 -25 -4 -22 -29 1 -3 -5 -12
-13 -18 -8 -7 -15 -17 -15 -22 0 -5 18 4 39 21 21 17 44 31 50 31 6 0 11 4 11
9 0 14 -18 23 -24 12z"/>
<path d="M2173 2705 c0 -27 2 -38 4 -22 2 15 2 37 0 50 -2 12 -4 0 -4 -28z"/>
<path d="M2065 2701 c-3 -5 -1 -12 5 -16 5 -3 10 1 10 9 0 18 -6 21 -15 7z"/>
<path d="M2110 2636 c-8 -11 -9 -50 -1 -163 6 -81 14 -188 17 -238 7 -128 13
-155 29 -155 19 0 19 16 1 23 -19 7 -45 499 -27 521 7 8 8 17 3 20 -6 3 -15
-1 -22 -8z"/>
<path d="M2182 2605 c0 -16 2 -22 5 -12 2 9 2 23 0 30 -3 6 -5 -1 -5 -18z"/>
<path d="M2071 2533 c-1 -12 4 -25 9 -28 12 -7 12 2 0 30 -8 19 -9 19 -9 -2z"/>
<path d="M1976 2389 l-48 -30 6 -62 c3 -34 8 -100 11 -147 10 -137 6 -131 65
-112 48 15 73 41 28 28 -68 -19 -65 -19 -71 16 -3 18 -9 85 -13 148 l-6 116
46 24 c25 14 46 28 46 32 0 18 -20 14 -64 -13z"/>
<path d="M1851 2318 l-34 -21 8 -146 c3 -80 10 -150 15 -155 9 -10 80 11 80
24 0 5 -15 4 -32 -1 -18 -5 -35 -9 -38 -9 -5 0 -13 130 -14 229 -1 40 2 46 31
60 18 9 33 22 33 29 0 16 -9 14 -49 -10z"/>
<path d="M500 2275 c0 -19 2 -35 4 -35 2 0 6 16 8 35 2 19 0 35 -4 35 -4 0 -8
-16 -8 -35z"/>
<path d="M1751 2259 l-33 -20 7 -122 c8 -156 10 -160 43 -152 43 10 53 28 12
20 l-35 -6 -3 68 c-1 37 -5 93 -8 124 -6 55 -5 56 25 69 17 7 31 19 31 26 0
18 1 18 -39 -7z"/>
<path d="M512 2195 c0 -22 5 -96 12 -165 8 -69 14 -102 14 -75 0 28 -5 102
-12 165 -8 63 -14 97 -14 75z"/>
<path d="M1658 2206 c-19 -14 -22 -76 -9 -206 5 -58 8 -65 26 -62 11 2 25 8
30 14 7 6 1 7 -16 3 l-26 -6 -8 112 -7 112 29 23 c30 25 12 34 -19 10z"/>
<path d="M1107 2170 c-80 -14 -160 -42 -145 -51 7 -5 9 -9 3 -9 -5 0 -4 -4 4
-9 7 -5 41 -6 73 -3 44 3 62 1 68 -8 6 -10 20 -3 56 28 26 23 52 42 58 43 19
1 -28 18 -49 17 -11 0 -42 -4 -68 -8z"/>
<path d="M1593 2168 c-20 -10 -23 -19 -23 -73 0 -34 3 -90 6 -124 6 -55 9 -62
27 -59 11 2 22 8 24 15 3 7 -3 10 -15 6 -17 -4 -20 3 -25 58 -13 116 -9 157
13 164 11 3 20 11 20 16 0 11 1 11 -27 -3z"/>
<path d="M2101 2080 l-1 -95 -81 -17 c-45 -9 -83 -19 -86 -21 -4 -5 7 -53 35
-147 14 -47 24 -66 38 -69 18 -3 486 29 492 34 2 2 -15 62 -37 135 -23 72 -41
138 -41 147 0 8 -6 13 -13 10 -7 -2 -48 -12 -92 -22 -44 -9 -89 -20 -100 -25
-44 -19 -85 -28 -89 -21 -3 4 -6 38 -7 77 -3 110 -18 121 -18 14z m279 -172
c0 -7 3 -23 6 -35 5 -20 2 -23 -20 -23 -14 0 -26 6 -26 13 0 6 -3 22 -6 35 -5
19 -2 22 20 22 14 0 26 -6 26 -12z"/>
<path d="M1524 2126 c-10 -8 -17 -17 -14 -19 3 -3 14 1 24 9 11 7 17 16 15 19
-3 3 -14 -2 -25 -9z"/>
<path d="M2213 2085 c0 -22 2 -30 4 -17 2 12 2 30 0 40 -3 9 -5 -1 -4 -23z"/>
<path d="M1467 2095 c-17 -12 -18 -23 -11 -107 4 -51 7 -99 5 -106 -3 -16 48
-8 89 14 24 13 24 13 3 14 -23 0 -28 16 -37 130 -2 25 -2 2 -1 -52 2 -94 1
-96 -19 -88 -18 6 -22 19 -28 90 -6 72 -5 85 10 96 9 7 15 15 12 17 -3 3 -13
-1 -23 -8z"/>
<path d="M1418 2067 c-14 -10 -15 -28 -11 -109 5 -87 8 -98 24 -98 11 0 19 7
19 16 0 8 -4 13 -9 10 -19 -12 -28 153 -9 172 17 17 5 24 -14 9z"/>
<path d="M765 2055 c-27 -8 -75 -28 -106 -45 -60 -32 -79 -63 -59 -100 5 -10
10 -30 10 -44 0 -27 19 -47 21 -22 3 29 4 34 11 42 5 4 8 -26 7 -67 -1 -102
-1 -102 16 -96 17 7 31 -11 27 -34 -2 -12 6 -18 27 -21 17 -2 32 -1 33 4 2 4
17 4 33 -1 17 -5 24 -10 18 -10 -22 -2 -14 -31 7 -31 16 0 20 7 20 38 0 33 3
37 26 39 34 1 46 20 38 58 -8 38 -7 37 -37 26 -19 -7 -27 -19 -30 -43 l-4 -33
-1 38 c-1 20 -7 37 -13 37 -7 0 -9 -9 -6 -23 9 -32 -8 -57 -18 -27 -7 22 -7
22 -71 4 -19 -5 -22 0 -28 37 -4 23 -5 43 -4 44 2 2 40 21 85 44 62 31 81 45
76 56 -3 9 -15 15 -26 13 -25 -4 -79 48 -75 71 2 10 20 20 47 27 25 6 47 16
49 22 5 15 -10 14 -73 -3z"/>
<path d="M1038 1978 c-10 -7 -14 -18 -10 -25 10 -17 35 0 30 21 -2 14 -6 15
-20 4z"/>
<path d="M1875 1908 c-16 -4 -49 -12 -72 -18 -59 -15 -54 -27 10 -24 l52 3
-65 -15 c-70 -16 -161 -41 -198 -55 -13 -5 -31 -9 -42 -9 -28 0 -32 -15 -19
-60 9 -29 17 -39 28 -36 9 3 99 10 201 17 102 6 186 12 187 13 2 1 -8 38 -21
82 -14 43 -26 86 -28 95 -2 12 -10 13 -33 7z m48 -92 c13 -40 -13 -55 -96 -56
-43 0 -66 -4 -62 -10 3 -5 2 -10 -4 -10 -5 0 -13 5 -16 10 -3 6 -17 10 -30 10
-13 0 -27 5 -30 10 -4 6 -11 8 -16 5 -5 -4 -9 -4 -9 -1 0 13 120 61 170 68 58
9 84 1 93 -26z m-248 -88 c6 -4 -5 -8 -24 -8 -33 0 -34 1 -15 14 10 8 21 11
24 8 3 -4 10 -10 15 -14z"/>
<path d="M542 1860 c0 -19 2 -27 5 -17 2 9 2 25 0 35 -3 9 -5 1 -5 -18z"/>
<path d="M1708 1863 c7 -3 16 -2 19 1 4 3 -2 6 -13 5 -11 0 -14 -3 -6 -6z"/>
<path d="M1563 1840 c-13 -5 -23 -11 -23 -14 0 -7 72 5 90 15 21 12 -38 11
-67 -1z"/>
<path d="M1510 1831 c0 -6 4 -13 10 -16 6 -3 7 1 4 9 -7 18 -14 21 -14 7z"/>
<path d="M792 1821 c-11 -7 -10 -10 3 -15 23 -9 25 -8 25 9 0 17 -9 19 -28 6z"/>
<path d="M553 1743 c0 -35 -3 -66 -7 -70 -4 -5 -7 -3 -6 2 5 22 -1 45 -10 45
-5 0 -10 -9 -10 -20 0 -15 -7 -20 -24 -20 -14 0 -36 -4 -50 -10 -23 -8 -26 -7
-26 11 0 39 -23 13 -27 -30 -3 -32 -1 -41 8 -35 9 5 10 2 6 -9 -8 -20 9 -23
20 -3 11 19 95 33 91 15 -2 -7 5 -15 16 -17 10 -2 16 0 12 6 -3 6 -2 21 3 34
8 20 10 16 10 -22 1 -43 -1 -45 -26 -46 -121 -1 -132 -3 -130 -25 1 -19 6 -21
46 -16 25 3 47 10 49 16 2 6 10 11 18 11 9 0 13 -4 10 -8 -3 -4 8 -13 25 -19
28 -11 29 -10 28 15 0 15 -7 79 -14 142 -10 85 -13 99 -12 53z"/>
<path d="M1180 1750 l-25 -8 25 -1 c14 0 32 4 40 9 13 9 13 10 0 9 -8 -1 -26
-5 -40 -9z"/>
<path d="M604 1709 c-17 -6 -20 -13 -17 -33 5 -25 23 -37 23 -15 0 8 5 8 15
-1 8 -7 15 -21 15 -32 0 -27 24 -17 28 12 4 25 -14 66 -32 73 -6 2 -21 1 -32
-4z"/>
<path d="M361 1684 c0 -11 3 -14 6 -6 3 7 2 16 -1 19 -3 4 -6 -2 -5 -13z"/>
<path d="M1216 1685 c-19 -14 -19 -15 7 -15 19 0 25 4 21 15 -4 8 -7 15 -8 15
0 0 -10 -7 -20 -15z"/>
<path d="M330 1643 c-24 -10 -37 -27 -32 -42 3 -8 0 -11 -7 -7 -6 4 -11 3 -11
-3 0 -5 -8 -12 -17 -14 -10 -3 -5 -5 12 -6 19 -1 37 6 48 19 24 28 47 26 47
-5 0 -25 -10 -30 -52 -26 -10 1 -18 -2 -18 -7 0 -11 72 -23 81 -13 4 3 4 28 0
56 -6 50 -18 61 -51 48z"/>
<path d="M240 1630 c0 -5 5 -10 11 -10 5 0 7 5 4 10 -3 6 -8 10 -11 10 -2 0
-4 -4 -4 -10z"/>
<path d="M4380 1278 c0 -13 5 -30 10 -38 7 -11 10 -7 10 17 0 17 -4 35 -10 38
-6 3 -10 -4 -10 -17z"/>
<path d="M4321 1275 c0 -11 4 -29 9 -40 8 -18 9 -18 9 5 0 14 -4 32 -9 40 -8
12 -10 12 -9 -5z"/>
<path d="M4241 1253 c0 -10 4 -27 9 -38 7 -17 9 -15 9 12 1 17 -3 35 -9 38 -5
3 -10 -2 -9 -12z"/>
<path d="M4161 1233 c0 -10 4 -27 9 -38 7 -17 9 -15 9 12 1 17 -3 35 -9 38 -5
3 -10 -2 -9 -12z"/>
<path d="M4080 1201 c0 -16 4 -32 9 -36 5 -3 9 8 9 25 -1 40 -18 50 -18 11z"/>
</g>
</svg>
